# xmcd
#
# Track frame offsets: 
#        150
#        21282
#        30790
#        44816
#        54024
#        69086
#        80334
#        94536
#        108375
#        122298
#        140408
#        152811
#        165993
#        178806
#
# Disc length: 2580 seconds
#
# Revision: 0
# Processed by: cddbd v1.5.2PL0 Copyright (c) Steve Scherf et al.
# Submitted via: ExactAudioCopy v0.99pb3
#
DISCID=9f0a120e
DTITLE=Harmonica Hinds - If Speed Was Just A Thought
DYEAR=2012
DGENRE=Blues
TTITLE0=Calling The Musical Spirits
TTITLE1=I Wonder
TTITLE2=If Speed Was A Thought
TTITLE3=Spices
TTITLE4=Blues Moan
TTITLE5=She
TTITLE6=I Want To Know What Made You So
TTITLE7=Mix Up
TTITLE8=I'm Bombarded
TTITLE9=Pretty Lady
TTITLE10=You Gone Too Long
TTITLE11=Kick It
TTITLE12=Traveling On This Road
TTITLE13=Religion
EXTD=
EXTT0=
EXTT1=
EXTT2=
EXTT3=
EXTT4=
EXTT5=
EXTT6=
EXTT7=
EXTT8=
EXTT9=
EXTT10=
EXTT11=
EXTT12=
EXTT13=
PLAYORDER=
